<mxfile host="app.diagrams.net" modified="2021-03-03T14:00:29.638Z" agent="5.0 (Macintosh; Intel Mac OS X 10_15_7) AppleWebKit/537.36 (KHTML, like Gecko) Chrome/88.0.4324.182 Safari/537.36 Edg/88.0.705.81" etag="h_8lw2_7bfoQFPn6_Kuq" version="14.4.3" type="github">
  <diagram id="0Cl2TPLpGm99xGJfalz_" name="Page-1">
    <mxGraphModel dx="2066" dy="1003" grid="1" gridSize="10" guides="1" tooltips="1" connect="1" arrows="1" fold="1" page="1" pageScale="1" pageWidth="850" pageHeight="1100" math="0" shadow="0">
      <root>
        <mxCell id="0" />
        <mxCell id="1" parent="0" />
        <mxCell id="y-Uzk0fHEcRHeqYeO7LX-6" value="" style="edgeStyle=orthogonalEdgeStyle;rounded=0;orthogonalLoop=1;jettySize=auto;html=1;" edge="1" parent="1" source="y-Uzk0fHEcRHeqYeO7LX-1" target="y-Uzk0fHEcRHeqYeO7LX-2">
          <mxGeometry relative="1" as="geometry" />
        </mxCell>
        <mxCell id="y-Uzk0fHEcRHeqYeO7LX-1" value="Fetch" style="rounded=1;whiteSpace=wrap;html=1;" vertex="1" parent="1">
          <mxGeometry x="280" y="220" width="120" height="60" as="geometry" />
        </mxCell>
        <mxCell id="y-Uzk0fHEcRHeqYeO7LX-7" value="" style="edgeStyle=orthogonalEdgeStyle;rounded=0;orthogonalLoop=1;jettySize=auto;html=1;" edge="1" parent="1" source="y-Uzk0fHEcRHeqYeO7LX-2" target="y-Uzk0fHEcRHeqYeO7LX-4">
          <mxGeometry relative="1" as="geometry" />
        </mxCell>
        <mxCell id="y-Uzk0fHEcRHeqYeO7LX-8" value="NO" style="edgeLabel;html=1;align=center;verticalAlign=middle;resizable=0;points=[];" vertex="1" connectable="0" parent="y-Uzk0fHEcRHeqYeO7LX-7">
          <mxGeometry x="-0.2364" y="-4" relative="1" as="geometry">
            <mxPoint as="offset" />
          </mxGeometry>
        </mxCell>
        <mxCell id="y-Uzk0fHEcRHeqYeO7LX-9" value="" style="edgeStyle=orthogonalEdgeStyle;rounded=0;orthogonalLoop=1;jettySize=auto;html=1;" edge="1" parent="1" source="y-Uzk0fHEcRHeqYeO7LX-2" target="y-Uzk0fHEcRHeqYeO7LX-3">
          <mxGeometry relative="1" as="geometry" />
        </mxCell>
        <mxCell id="y-Uzk0fHEcRHeqYeO7LX-10" value="YES" style="edgeLabel;html=1;align=center;verticalAlign=middle;resizable=0;points=[];" vertex="1" connectable="0" parent="y-Uzk0fHEcRHeqYeO7LX-9">
          <mxGeometry x="-0.2" relative="1" as="geometry">
            <mxPoint as="offset" />
          </mxGeometry>
        </mxCell>
        <mxCell id="y-Uzk0fHEcRHeqYeO7LX-2" value="是否命中缓存？" style="rhombus;whiteSpace=wrap;html=1;" vertex="1" parent="1">
          <mxGeometry x="285" y="330" width="110" height="90" as="geometry" />
        </mxCell>
        <mxCell id="y-Uzk0fHEcRHeqYeO7LX-3" value="返回结果" style="rounded=1;whiteSpace=wrap;html=1;" vertex="1" parent="1">
          <mxGeometry x="280" y="480" width="120" height="60" as="geometry" />
        </mxCell>
        <mxCell id="y-Uzk0fHEcRHeqYeO7LX-4" value="实时计算" style="rounded=1;whiteSpace=wrap;html=1;" vertex="1" parent="1">
          <mxGeometry x="450" y="345" width="120" height="60" as="geometry" />
        </mxCell>
        <mxCell id="y-Uzk0fHEcRHeqYeO7LX-11" value="" style="endArrow=classic;html=1;exitX=0.5;exitY=1;exitDx=0;exitDy=0;entryX=1;entryY=0.5;entryDx=0;entryDy=0;edgeStyle=orthogonalEdgeStyle;" edge="1" parent="1" source="y-Uzk0fHEcRHeqYeO7LX-4" target="y-Uzk0fHEcRHeqYeO7LX-3">
          <mxGeometry width="50" height="50" relative="1" as="geometry">
            <mxPoint x="400" y="540" as="sourcePoint" />
            <mxPoint x="450" y="490" as="targetPoint" />
          </mxGeometry>
        </mxCell>
      </root>
    </mxGraphModel>
  </diagram>
</mxfile>
